<svg xmlns="http://www.w3.org/2000/svg" viewBox="0 0 1000 1000" fill="none" preserveAspectRatio="xMidYMid meet" version="1.2" baseProfile="tiny-ps" xml:space="preserve"><title>logo-bimi</title>
<rect width="1000" height="1000" fill="#D64F25"/>
<path d="M283.447 811.575L340.991 712.021C411.596 589.875 587.755 589.875 658.36 711.668L715.903 811.221L609.643 872.648L527.388 730.732C515.032 709.55 484.319 709.55 471.963 730.732L390.061 873.001L283.447 811.575Z" fill="white"/>
<path d="M187.427 283.447L286.98 340.991C409.126 411.596 409.127 587.755 287.333 658.36L187.779 715.903L126.353 609.643L268.269 527.388C289.451 515.032 289.451 484.319 268.269 471.963L126 390.061L187.427 283.447Z" fill="white"/>
<path d="M715.552 187.427L658.009 286.98C587.404 409.126 411.244 409.126 340.639 287.333L283.096 187.779L389.356 126.353L471.611 268.269C483.967 289.451 514.68 289.451 527.036 268.269L609.291 126L715.552 187.427Z" fill="white"/>
<path d="M811.575 715.552L712.021 658.009C589.875 587.404 589.875 411.244 711.668 340.639L811.221 283.096L872.648 389.356L730.732 471.611C709.55 483.967 709.55 514.68 730.732 527.036L873.001 608.938L811.575 715.552Z" fill="white"/>
<path d="M499.499 569.755C538.883 569.755 570.81 537.828 570.81 498.444C570.81 459.06 538.883 427.133 499.499 427.133C460.115 427.133 428.188 459.06 428.188 498.444C428.188 537.828 460.115 569.755 499.499 569.755Z" fill="white"/>
</svg>
